<svg id="canvas" height="auto" xmlns="http://www.w3.org/2000/svg" version="1.1" xmlns:xlink="http://www.w3.org/1999/xlink" xmlns:svgjs="http://svgjs.dev/svgjs" viewBox="0 0 900 512" width="auto" style="width: auto; height: auto;"><rect width="900" height="512" fill="#5ffd6fff"/><defs><linearGradient x1="0.5" y1="0" x2="0" y2="1" id="SvgjsLinearGradient8611"><stop stop-color="#45ad50" offset="0"/><stop stop-color="#1a401d" offset="0.1"/></linearGradient><linearGradient x1="0.5" y1="0" x2="0" y2="1" id="SvgjsLinearGradient8612"><stop stop-color="#61c06a" offset="0"/><stop stop-color="#27612d" offset="0.25"/></linearGradient><linearGradient x1="0.5" y1="0" x2="0" y2="1" id="SvgjsLinearGradient8613"><stop stop-color="#7fcc87" offset="0"/><stop stop-color="#33803b" offset="0.4"/></linearGradient><linearGradient x1="0.5" y1="0" x2="0" y2="1" id="SvgjsLinearGradient8614"><stop stop-color="#a1d9a6" offset="0"/><stop stop-color="#40a14a" offset="0.55"/></linearGradient><linearGradient x1="0.5" y1="0" x2="0" y2="1" id="SvgjsLinearGradient8615"><stop stop-color="#bde8c1" offset="0"/><stop stop-color="#4dbf58" offset="0.7"/></linearGradient><linearGradient x1="0.5" y1="0" x2="0" y2="1" id="SvgjsLinearGradient8616"><stop stop-color="#dbf8de" offset="0"/><stop stop-color="#5ae067" offset="0.85"/></linearGradient></defs><path d="M-450,-220.14315879583233C-405.0417161439512,-214.44798809339946,-270.4559709062501,-198.5147853273904,-180.25029686370715,-185.97213458123514C-90.04462282116417,-173.42948383507988,4.932838970106303,-163.63977280218555,91.23404425525788,-144.88725431890083C177.53524954040947,-126.13473583561611,247.44984649660893,-98.23966713797958,337.55693484720234,-73.45702368152683C427.66402319779576,-48.67438022507409,538.1360635000187,-14.410371061133436,631.8765743588183,3.80860641981565C725.6170852176178,22.027583900764736,855.3127623931364,30.515468740109007,900,35.85684120416768L 900 512 L -450 512 Z" fill="url(#SvgjsLinearGradient8611)"/><path d="M-450,-150.6192067568296C-409.07505896652026,-140.35641490350326,-277.49493190414586,-103.04392820458828,-204.45035379912173,-89.04245563687147C-131.4057756940976,-75.04098306915465,-77.85882418765462,-85.85426998699349,-11.732531369855117,-66.61037135052874C54.39376144794438,-47.36647271406399,115.04400933750195,3.0094075607463253,192.30740310767527,26.42093618191703C269.5707968778486,49.83246480308773,368.1593335054439,66.53061949870049,451.84783125118486,73.8588003764955C535.5363289969258,81.1869812542905,619.7463614573185,57.19087448942646,694.438389582121,70.3900214486871C769.1304177069235,83.58916840794772,865.7397315970202,139.27640535149723,900,153.05368213205927L 900 512 L -450 512 Z" fill="url(#SvgjsLinearGradient8612)"/><path d="M-450,-82.42588001551951C-418.43579211348225,-77.3715872851468,-327.1672956778972,-65.80306484184985,-260.6147526808936,-52.10012363328326C-194.06220968389002,-38.39718242471668,-109.7479791553408,-16.70938018575495,-50.6847420179784,-0.20823276412003366C8.378495119383992,16.29291465751488,28.69290636451963,32.24500888692788,93.76467014328074,46.90676089652623C158.83643392204186,61.56851290612458,275.31093644899113,62.61768534237093,339.7458406545883,87.76227929347009C404.1807448601854,112.90687324456924,420.3739478297586,170.55649972674223,480.3740953768636,197.77432460312116C540.3742429239686,224.99214947950009,629.8090751666955,239.21163302522083,699.7467259372182,251.0692285517437C769.684376707741,262.9268240782665,866.6244543228697,265.9447862271725,900,268.91989776225824L 900 512 L -450 512 Z" fill="url(#SvgjsLinearGradient8613)"/><path d="M-450,-9.547728784317105C-402.483899897887,8.836628578352126,-257.193172780378,74.22000118613445,-164.90339938732205,100.75841539169829C-72.61362599426609,127.29682959726213,21.744446796126724,133.75571612253606,103.73864035833584,149.6827564490659C185.73283392054498,165.60979677559573,239.14395336524427,172.8050119170612,327.06176198593266,196.32065735087724C414.97957060662105,219.8363027846933,535.7557857467884,258.5849156300501,631.2454920824663,290.7766290519621C726.7351984181441,322.96834247387415,855.2075820137444,373.0218864106183,900,389.4709378823496L 900 512 L -450 512 Z" fill="url(#SvgjsLinearGradient8614)"/><path d="M-450,80.18738576236935C-416.41831681767013,91.3814231802134,-308.8249151738009,124.61750404724874,-248.50990090602093,147.35161026943373C-188.19488663824097,170.08571649161874,-149.44289715195967,198.68095562275184,-88.10991439332027,216.5920230954793C-26.776931634680857,234.50309056820677,54.525766954226086,232.44667381871764,119.48799564581554,254.8180151057985C184.45022433740502,277.1893563928794,236.85869401930887,326.87264105372617,301.6634577562165,350.8200708179645C366.4682214931241,374.76750058220284,443.5955573132089,381.67942799646636,508.3165780672612,398.5025936912285C573.0375988213135,415.3257593859907,624.7090119584074,430.36300704875487,689.9895822805305,451.7590649865376C755.2701526026536,473.1551229243204,864.9982637134217,514.3589619293604,900,526.878941317925L 900 512 L -450 512 Z" fill="url(#SvgjsLinearGradient8615)"/><path d="M-450,148.39158429127573C-423.382215655526,155.01607352631115,-348.8951403364754,165.050961743313,-290.29329393315595,188.13851970148826C-231.69144752983652,211.22607765966353,-154.9999606373604,264.7889198375285,-98.38892158008338,286.9169320403273C-41.77788252280636,309.0449442431261,-2.1309571800268614,301.1993797973356,49.372940410506146,320.90659291828115C100.87683800103915,340.6138060392267,149.92345400834415,382.67693308496115,210.63446396311468,405.16021076600055C271.3454739178852,427.64348844703994,353.0807586670786,439.34201767958723,413.6390001391293,455.8062590045174C474.19724161117995,472.2705003294476,523.6512659587513,487.20269845577803,573.9839127954185,503.9456587155817C624.3165596320857,520.6886189753853,661.2988666250355,533.1289588933163,715.6348811591324,556.2640205633394C769.9708956932293,579.3990822333625,869.2724801931887,628.3406940403233,900,642.7560287357202L 900 512 L -450 512 Z" fill="url(#SvgjsLinearGradient8616)"/></svg>