<svg id="canvas" height="auto" xmlns="http://www.w3.org/2000/svg" version="1.1" xmlns:xlink="http://www.w3.org/1999/xlink" xmlns:svgjs="http://svgjs.dev/svgjs" viewBox="0 0 900 512" width="auto" style="width: auto; height: auto;"><rect width="900" height="512" fill="#d7d7d7ff"/><path d="M-450,-220.20199722929024C-419.3431416061922,-209.71447791010337,-325.0606294291745,-172.53502711484157,-266.0588496371533,-157.27688131416897C-207.05706984513208,-142.01873551349638,-164.13350763196482,-131.35765131049985,-95.98932124787265,-128.65312242525468C-27.845134863780487,-125.94859354000953,76.29369758727613,-145.36363321776136,142.80626866739973,-141.04970800269803C209.31883974752333,-136.7357827876347,246.1216066623745,-123.13167669511564,303.08610523286893,-102.76957113487467C360.05060380336334,-82.40746557463369,416.6899908800333,-35.89258749393149,484.5932600903663,-18.877074641252136C552.4965293006993,-1.8615617885727893,641.2712638432614,-9.789006920792234,710.505720494867,-0.6764940187985857C779.7401771464725,8.436018883195063,868.4176200824778,29.718919972458362,900,35.79800277070975L 900 512 L -450 512 Z" fill="#607848"/><path d="M-450,-175.4996137495466C-400.1965064846538,-171.1308905352859,-243.63021649172111,-163.8850179303626,-151.1790389079227,-149.28727446398236C-58.72786132412428,-134.6895309976021,23.02135253728487,-115.36478807509037,104.70706550279041,-87.91315295126502C186.39277846829594,-60.461517827439664,248.04403149053599,-11.103436035550367,338.9352388851106,15.42253627896978C429.82644627968523,41.948508593489926,556.5435163510899,55.629083718386376,650.0543098702382,71.24268093585587C743.5651033893864,86.85627815332536,858.342384978373,102.7938798091316,900,109.10411958378674L 900 512 L -450 512 Z" fill="#789048"/><path d="M-450,-131.50010294644534C-389.48480878728515,-114.5824758548414,-199.3974030379112,-59.39205628724814,-86.90885272371094,-29.994340396821748C25.579697590489317,-0.5966245063953615,118.3545325547082,22.447736108478846,224.9313018852015,44.88619239611298C331.50807121569477,67.32464868374711,440.04031357344905,81.83286877496501,552.5517632592488,104.63639732898307C665.0632129450486,127.43992588300112,842.0919605432082,168.86220265501495,900,181.70736372022134L 900 512 L -450 512 Z" fill="#c0d860"/><path d="M-450,-88.2136664294745C-408.51281033118056,-75.00373940293449,-273.31185085743726,-30.512008042089377,-201.07686198708328,-8.954104270234367C-128.8418731167293,12.603799501620642,-85.27727744853105,23.685035882967657,-16.590066777876064,41.133756201655565C52.09714389277893,58.58247652034348,129.7557718846558,82.74462778250647,211.04640203684667,95.73821764189307C292.3370321890376,108.73180750127968,395.5085262375332,99.2439816026469,471.15371413526924,119.09529535797522C546.7989020330053,138.94660911330354,593.4431484458079,192.42906047177127,664.917529423263,214.846100173863C736.3919104007181,237.26313987595472,860.8195882372105,247.1389613377484,900,253.5975335705255L 900 512 L -450 512 Z" fill="#f0f0d8"/><path d="M-450,-36.193469331611844C-418.22194646377795,-28.298061357679202,-320.5890114335308,-4.844454989447325,-259.3316787826677,11.178978511984003C-198.07434613180462,27.20241201341533,-143.6064121918221,38.16240959427988,-82.45600409482145,59.94713167697611C-21.305595997820802,81.73185375967235,38.53926121558224,127.81575553085786,107.57076979933618,141.8873110081614C176.6022783830901,155.95886648546494,259.79118478126213,124.86291504005825,331.7330474077022,144.37646454079734C403.6749100341423,163.89001404153643,481.66443315047724,239.96132430000532,539.2219455579766,258.96860801259595C596.779457965476,277.9758917251866,616.9484461123612,245.87802415148693,677.0781218526985,258.4201668163412C737.2077975930357,270.96230948119546,862.8463536421164,321.5879144708248,900,334.2214640017215L 900 512 L -450 512 Z" fill="#604848"/><path d="M-450,7.617183250953758C-403.03945356297527,18.815284118175505,-256.00043272948176,51.70951338108168,-168.23672137785178,74.80578845428423C-80.4730100262218,97.90206352748677,-12.164272823049231,117.55940406586186,76.58226810977986,146.19483369016905C165.32880904260895,174.83026331447624,269.24735807443847,215.6174573757865,364.24252421912274,246.6183662001274C459.237690363807,277.6192750244683,557.2603523477393,305.53070601663234,646.5532649778855,332.2002866362145C735.8461776080318,358.8698672557967,857.7588774963142,394.2299227040528,900,406.6358499176204L 900 512 L -450 512 Z" fill="#607848"/><path d="M-450,37.60115057141595C-416.0082305175554,53.92712424825949,-324.8734147501244,108.28869586496924,-246.04938310533234,135.55699263247718C-167.22535146054025,162.8252893999851,-58.39923240454277,180.31479323495182,22.944189868752517,201.21093117646353C104.2876121420478,222.10706911797524,176.18016949387305,244.3753109376229,242.01115053443942,260.93382028154736C307.8421315750058,277.49232962547177,349.89675555267706,283.7107341983244,417.9300761121508,300.5619872400101C485.96339667162454,317.41324028169583,569.8660865766401,334.5977446430938,650.2110738912817,362.04133853166144C730.5560612059232,389.4849324202291,858.3685123152136,448.02651523145687,900,465.22355057141596L 900 512 L -450 512 Z" fill="#789048"/><path d="M-450,83.2991519253618C-405.703943782785,97.35023182316945,-278.7372627576165,137.91104628776958,-184.22366269671008,167.60563131220775C-89.71006263580365,197.30021633664592,30.502664645165595,228.0062278128667,117.08160036543858,261.46666207199087C203.66053608571156,294.927096331115,248.64755087399004,336.68137381467966,335.24995162492786,368.3682368669526C421.8523523758657,400.05509991922554,542.5709968085533,423.0616656536713,636.6960048710654,451.5878403856284C730.8210129335774,480.1140151175855,856.1160008118443,524.8690444465174,900,539.5252852586951L 900 512 L -450 512 Z" fill="#c0d860"/><path d="M-450,123.26273353654845C-423.0552661096017,131.2201339166601,-349.84178432175685,154.2155496116622,-288.33159665760996,171.00713581721834C-226.82140899346305,187.79872202277448,-136.61796830638394,199.0272494380436,-80.93887401511861,224.01225076988527C-25.259779723853292,248.99725210172693,-2.8338397185836612,297.39407250263633,45.74296908998195,320.91714380826824C94.31977789854756,344.44021511390014,156.7634340479626,350.5492567010564,210.52197883627505,365.15067860367674C264.2805236245875,379.7521005062971,309.32471316383976,383.76848903936514,368.2942378198567,408.52567522399033C427.2637624758736,433.28286140861553,501.6968628050286,486.4645887513482,564.3391267723766,513.693795711428C626.9813907397247,540.9230026715079,688.2043427526742,556.167782902505,744.1478216239448,571.9009169844695C800.0913004952154,587.634051066434,874.0246369373241,602.0606530000908,900,608.092600203215L 900 512 L -450 512 Z" fill="#f0f0d8"/><path d="M-450,160.87967771726278C-414.2975246483858,173.66188085381523,-304.4256274591021,210.8586164048767,-235.78514789031448,237.5728965365775C-167.14466832152684,264.2871766682783,-93.94823517612338,299.3234955152935,-38.157122587274166,321.16535850746754C17.633990001575043,343.0072214996416,40.612760140254046,347.02609522701783,98.96152764278078,368.6240744896219C157.31029514530752,390.2220537522259,239.44332123004045,426.66164510835694,311.93548242788626,450.7532340830918C384.42764362573206,474.84482305782666,469.6365303981792,489.4032787967754,533.9144948298555,513.173608338031C598.1924592615317,536.9439378792868,636.5890181562529,566.5185997674204,697.6032690179437,593.3752113306257C758.6175198796345,620.231822893831,866.2672115029907,660.8235999861566,900,674.3132777172628L 900 512 L -450 512 Z" fill="#604848"/></svg>