<?xml version="1.0" encoding="UTF-8" standalone="no"?>
<svg
   id="canvas"
   height="auto"
   version="1.1"
   viewBox="0 0 900 512"
   width="auto"
   style="width: auto; height: auto;"
   sodipodi:docname="footer.svg"
   inkscape:version="1.3.2 (091e20e, 2023-11-25, custom)"
   xmlns:inkscape="http://www.inkscape.org/namespaces/inkscape"
   xmlns:sodipodi="http://sodipodi.sourceforge.net/DTD/sodipodi-0.dtd"
   xmlns="http://www.w3.org/2000/svg"
   xmlns:svg="http://www.w3.org/2000/svg">
  <defs
     id="defs7" />
  <sodipodi:namedview
     id="namedview7"
     pagecolor="#ffffff"
     bordercolor="#000000"
     borderopacity="0.25"
     inkscape:showpageshadow="2"
     inkscape:pageopacity="0.0"
     inkscape:pagecheckerboard="0"
     inkscape:deskcolor="#d1d1d1"
     inkscape:zoom="0.57277778"
     inkscape:cx="362.26964"
     inkscape:cy="494.95635"
     inkscape:window-width="1920"
     inkscape:window-height="1017"
     inkscape:window-x="-8"
     inkscape:window-y="-8"
     inkscape:window-maximized="1"
     inkscape:current-layer="canvas" />
  <path
     d="m -447.13459,257.37395 c 33.81668,12.37574 132.62751,65.51407 202.90007,74.25443 70.27257,8.74037 154.74334,-23.32281 218.73533,-21.81224 63.991997,1.51057 110.740007,20.10832 165.21665,30.87567 54.47665,10.76734 99.04709,19.18543 161.64323,33.7284 62.59614,14.54297 147.5664,42.56907 213.93363,53.5294 66.36723,10.96033 119.67457,-2.00483 184.26976,12.23256 64.59516,14.23739 169.41776,60.99316 203.30136,73.19179 V 989.14507 H -447.13459 Z"
     fill="#33cc33"
     id="path1" />
  <path
     d="m -447.13459,335.28993 c 49.24017,12.64344 205.33175,59.61534 295.44103,75.86064 90.109281,16.2453 159.5955204,4.62286 245.214647,21.61115 85.619133,16.9883 175.725983,54.84421 268.500113,80.31863 92.77413,25.47441 198.00395,52.68252 288.14465,72.52786 90.14069,19.84535 210.58299,38.78683 252.69959,46.54419 V 989.14507 H -447.13459 Z"
     fill="#66ff66"
     id="path2" />
  <path
     d="m -447.13459,383.4028 c 28.22662,10.92533 108.20597,52.5154 169.35973,65.55196 61.15376,13.03655 133.04408,1.22615 197.56284,12.66736 64.518771,11.44121 123.562737,30.56127 189.54977,55.97989 65.98702,25.41862 135.02612,73.7847 206.37239,96.53185 71.34626,22.74714 162.63182,35.4017 221.7052,39.95101 59.07338,4.54931 71.82675,-23.82897 132.7351,-12.65516 60.9083,11.17382 193.9291,66.41503 232.715,79.69804 V 989.14507 H -447.13459 Z"
     fill="#66cc66"
     id="path3" />
  <path
     d="m -447.13459,458.06971 c 33.92103,10.07238 143.51802,46.80842 203.52617,60.43426 60.00815,13.62584 98.51752,-0.44684 156.52273,21.3208 58.0052,21.76765 125.866157,91.95137 191.50847,109.28509 65.64232,17.33373 134.51884,-18.70298 202.34543,-5.28274 67.82659,13.42024 137.15109,65.00312 204.6141,85.8042 67.46301,20.80108 134.91675,21.16465 200.16394,39.00229 65.24719,17.83763 159.43259,56.68627 191.31919,68.02353 V 989.14507 H -447.13459 Z"
     fill="#009900"
     id="path4" />
  <path
     d="m -447.13459,500.34802 c 37.93057,15.32434 160.89612,69.70299 227.58342,91.94603 66.6873,22.24303 109.50461,24.38964 172.54038,41.51218 63.03578,17.12254 149.4452,41.20658 205.67425,61.22308 56.22904,20.0165 66.17899,40.64187 131.70003,58.87592 65.52105,18.23404 185.26952,30.9741 261.42626,50.52833 76.15674,19.55423 137.00159,47.56965 195.51419,66.79704 58.5126,19.2274 129.6346,40.47277 155.5615,48.56732 v 69.34715 H -447.13459 Z"
     fill="#00cc00"
     id="path5" />
  <path
     d="m -447.13459,561.4333 c 38.42394,12.34048 154.19339,53.87911 230.54364,74.04286 76.35026,20.16375 156.397481,27.13134 227.55791,46.93965 71.160417,19.8083 131.37131,42.00403 199.40463,71.91016 68.03332,29.90614 125.30895,81.1545 208.79529,107.52663 83.48634,26.37212 211.50631,24.05727 292.12274,50.70612 80.61642,26.64884 159.64652,90.98908 191.57582,109.18698 V 989.14507 H -447.13459 Z"
     fill="#33cc33"
     id="path6" />
  <path
     d="m -380.16489,594.32717 c 37.36603,13.45107 152.15149,55.60966 224.19621,80.70644 72.044713,25.09678 136.325983,39.89248 208.072073,69.87425 71.746077,29.98176 145.326887,78.65436 222.404437,110.01633 77.07755,31.36198 158.97397,52.30514 240.06085,78.15554 81.08687,25.8504 170.58267,49.87647 246.46041,76.94687 75.87775,27.0704 174.00505,71.2295 208.80605,85.4754 V 964.18234 H -380.16489 Z"
     fill="#66ff66"
     id="path7" />
</svg>
