<?xml version="1.0" encoding="UTF-8" standalone="no"?>
<svg
   id="canvas"
   height="720"
   version="1.1"
   viewBox="0 0 1920 720"
   width="1920"
   sodipodi:docname="footer2.svg"
   inkscape:version="1.3.2 (091e20e, 2023-11-25, custom)"
   xmlns:inkscape="http://www.inkscape.org/namespaces/inkscape"
   xmlns:sodipodi="http://sodipodi.sourceforge.net/DTD/sodipodi-0.dtd"
   xmlns="http://www.w3.org/2000/svg"
   xmlns:svg="http://www.w3.org/2000/svg">
  <defs
     id="defs7" />
  <sodipodi:namedview
     id="namedview7"
     pagecolor="#ffffff"
     bordercolor="#000000"
     borderopacity="0.25"
     inkscape:showpageshadow="2"
     inkscape:pageopacity="0.0"
     inkscape:pagecheckerboard="0"
     inkscape:deskcolor="#d1d1d1"
     inkscape:zoom="0.28638889"
     inkscape:cx="1077.2066"
     inkscape:cy="556.93501"
     inkscape:window-width="1920"
     inkscape:window-height="1017"
     inkscape:window-x="-8"
     inkscape:window-y="-8"
     inkscape:window-maximized="1"
     inkscape:current-layer="canvas" />
  <rect
     width="1339.4899"
     height="512"
     fill="#ffffffff"
     id="rect1"
     x="628.19879"
     y="215.83563"
     style="stroke-width:1.21997"
     ry="256" />
  <path
     d="M -41.546092,-3.93551 C 8.7840169,8.44023 155.84634,61.57856 260.43455,70.31892 365.02277,79.05929 490.74248,46.99611 585.98317,48.50668 c 95.2407,1.51057 164.81679,20.10832 245.89559,30.87567 81.07875,10.76734 147.41396,19.18543 240.57714,33.7284 93.1632,14.54296 219.6264,42.56907 318.4021,53.52939 98.7759,10.96033 178.1143,-2.00482 274.2528,12.23257 96.1384,14.23739 252.1482,60.99315 302.5779,73.19178 V 727.8356 H -41.546092 Z"
     fill="#33cc33"
     id="path1"
     style="stroke-width:1.21997" />
  <path
     d="m -41.546092,73.98046 c 73.28523,12.64344 305.599762,59.61535 439.711392,75.86065 134.11163,16.2453 237.52953,4.62285 364.95836,21.61115 127.42885,16.98829 261.53684,54.84421 399.61454,80.31862 138.0778,25.47442 294.6938,52.68253 428.8522,72.52787 134.1584,19.84535 313.4153,38.78683 376.0983,46.54419 V 727.8356 H -41.546092 Z"
     fill="#66ff66"
     id="path2"
     style="stroke-width:1.21997" />
  <path
     d="m -41.546092,122.09334 c 42.01030416,10.92532 161.045322,52.5154 252.061802,65.55195 91.01651,13.03655 198.01245,1.22616 294.03714,12.66737 96.02471,11.4412 183.90114,30.56126 282.1111,55.97988 98.20989,25.41863 200.96232,73.78471 307.14855,96.53186 106.1862,22.74714 242.0486,35.4017 329.9689,39.95101 87.92,4.54931 106.9011,-23.82897 197.5525,-12.65516 90.6512,11.17382 288.629,66.41503 346.3548,79.69804 V 727.8356 H -41.546092 Z"
     fill="#66cc66"
     id="path3"
     style="stroke-width:1.21997" />
  <path
     d="m -41.546092,196.76025 c 50.485417,10.07238 213.601012,46.80841 302.912472,60.43426 89.31144,13.62584 146.6258,-0.44685 232.95624,21.3208 86.33042,21.76765 187.32937,91.95137 285.02627,109.28509 97.69695,17.33373 200.20734,-18.70298 301.15511,-5.28274 100.9478,13.42024 204.125,65.00312 304.5317,85.8042 100.4067,20.80108 200.7996,21.16465 297.9084,39.00229 97.1089,17.83763 237.2871,56.68627 284.7446,68.02353 V 727.8356 H -41.546092 Z"
     fill="#009900"
     id="path4"
     style="stroke-width:1.21997" />
  <path
     d="m -41.546092,239.03856 c 56.452902,15.32433 239.465232,69.70299 338.717412,91.94603 99.25219,22.24303 162.97812,24.38964 256.79565,41.51218 93.81755,17.12254 222.42258,41.20658 306.10954,61.22308 83.68684,20.0165 98.49563,40.64187 196.01199,58.87592 97.5165,18.23404 275.7407,30.9741 389.0865,50.52833 113.3458,19.55423 203.9026,47.56965 290.9882,66.79704 87.0855,19.22736 192.938,40.47276 231.5255,48.56736 v 69.3471 H -41.546092 Z"
     fill="#00cc00"
     id="path5"
     style="stroke-width:1.21997" />
  <path
     d="m -41.546092,300.12384 c 57.187197,12.34048 229.489402,53.87911 343.123172,74.04286 113.63378,20.16375 232.76982,27.13134 338.67945,46.93965 105.90962,19.8083 195.52278,42.00403 296.77833,71.91016 101.25544,29.90614 186.50014,81.1545 310.75464,107.52663 124.2545,26.37216 314.7895,24.05726 434.7726,50.70616 119.9833,26.6488 237.6055,90.9891 285.1266,109.1869 V 727.8356 H -41.546092 Z"
     fill="#33cc33"
     id="path6"
     style="stroke-width:1.21997" />
  <path
     d="m -41.546092,357.98044 c 55.612685,13.45107 226.450412,55.60966 333.676152,80.70644 107.22573,25.09678 202.89696,39.89248 309.67825,69.87425 106.78127,29.98176 216.29327,78.65436 331.00942,110.01637 114.71627,31.3619 236.60447,52.3051 357.28787,78.1555 120.6834,25.8504 253.882,49.8765 366.8124,76.9469 112.9307,27.0704 258.9757,71.2295 310.7707,85.4754 V 727.8356 H -41.546092 Z"
     fill="#66ff66"
     id="path7"
     style="stroke-width:1.21997" />
</svg>
