<?xml version="1.0" encoding="UTF-8" standalone="no"?>
<svg
   id="canvas"
   height="auto"
   version="1.1"
   viewBox="0 0 900 512"
   width="auto"
   style="width: auto; height: auto;"
   sodipodi:docname="footer.svg"
   inkscape:version="1.3.2 (091e20e, 2023-11-25, custom)"
   xmlns:inkscape="http://www.inkscape.org/namespaces/inkscape"
   xmlns:sodipodi="http://sodipodi.sourceforge.net/DTD/sodipodi-0.dtd"
   xmlns="http://www.w3.org/2000/svg"
   xmlns:svg="http://www.w3.org/2000/svg">
  <defs
     id="defs7" />
  <sodipodi:namedview
     id="namedview7"
     pagecolor="#ffffff"
     bordercolor="#000000"
     borderopacity="0.25"
     inkscape:showpageshadow="2"
     inkscape:pageopacity="0.0"
     inkscape:pagecheckerboard="0"
     inkscape:deskcolor="#d1d1d1"
     inkscape:zoom="0.57277778"
     inkscape:cx="362.26964"
     inkscape:cy="355.28613"
     inkscape:window-width="1920"
     inkscape:window-height="1017"
     inkscape:window-x="-8"
     inkscape:window-y="-8"
     inkscape:window-maximized="1"
     inkscape:current-layer="canvas" />
  <rect
     width="900"
     height="512"
     fill="#ffffffff"
     id="rect1"
     x="277.59457"
     y="555.39282" />
  <path
     d="m -172.40543,335.6217 c 33.81668,12.37574 132.627502,65.51407 202.900069,74.25443 70.272571,8.74037 154.743341,-23.32281 218.735331,-21.81224 63.992,1.51057 110.74001,20.10832 165.21665,30.87567 54.47665,10.76734 99.04709,19.18543 161.64323,33.7284 62.59614,14.54296 147.5664,42.56907 213.93363,53.52939 66.36723,10.96033 119.67457,-2.00482 184.26976,12.23257 64.59516,14.23739 169.41776,60.99315 203.30136,73.19178 v 475.7711 H -172.40543 Z"
     fill="#33cc33"
     id="path1" />
  <path
     d="m -172.40543,413.53767 c 49.24017,12.64344 205.331751,59.61535 295.44103,75.86065 90.10928,16.2453 159.59552,4.62285 245.21465,21.61115 85.61913,16.98829 175.72598,54.84421 268.50011,80.31862 92.77413,25.47442 198.00395,52.68253 288.14465,72.52787 90.14069,19.84535 210.58299,38.78683 252.69959,46.54419 V 1067.3928 H -172.40543 Z"
     fill="#66ff66"
     id="path2" />
  <path
     d="m -172.40543,461.65055 c 28.22662,10.92532 108.205964,52.5154 169.3597262,65.55195 61.1537628,13.03655 133.0440838,1.22616 197.5628438,12.66737 64.51877,11.4412 123.56274,30.56126 189.54977,55.97988 65.98702,25.41863 135.02612,73.78471 206.37239,96.53186 71.34626,22.74714 162.63182,35.4017 221.7052,39.95101 59.07338,4.54931 71.82675,-23.82897 132.7351,-12.65516 60.9083,11.17382 193.9291,66.41503 232.715,79.69804 v 268.0173 H -172.40543 Z"
     fill="#66cc66"
     id="path3" />
  <path
     d="m -172.40543,536.31746 c 33.92103,10.07238 143.518016,46.80841 203.526165,60.43426 60.00815,13.62584 98.517525,-0.44685 156.522735,21.3208 58.0052,21.76765 125.86616,91.95137 191.50847,109.28509 65.64232,17.33373 134.51884,-18.70298 202.34543,-5.28274 67.82659,13.42024 137.15109,65.00312 204.6141,85.8042 67.46301,20.80108 134.91675,21.16465 200.16394,39.00229 65.24719,17.83763 159.43259,56.68627 191.31919,68.02353 V 1067.3928 H -172.40543 Z"
     fill="#009900"
     id="path4" />
  <path
     d="m -172.40543,578.59577 c 37.93057,15.32433 160.89612,69.70299 227.583421,91.94603 66.687299,22.24303 109.504609,24.38964 172.540379,41.51218 63.03578,17.12254 149.4452,41.20658 205.67425,61.22308 56.22904,20.0165 66.17899,40.64187 131.70003,58.87592 65.52105,18.23404 185.26952,30.9741 261.42626,50.52833 76.15674,19.55423 137.00159,47.56965 195.51419,66.79704 58.5126,19.2274 129.6346,40.47277 155.5615,48.56732 v 69.34713 H -172.40543 Z"
     fill="#00cc00"
     id="path5" />
  <path
     d="m -172.40543,639.68105 c 38.42394,12.34048 154.193383,53.87911 230.543641,74.04286 76.350259,20.16375 156.397479,27.13134 227.557909,46.93965 71.16042,19.8083 131.37131,42.00403 199.40463,71.91016 68.03332,29.90614 125.30895,81.1545 208.79529,107.52663 83.48634,26.37212 211.50631,24.05727 292.12274,50.70612 80.61642,26.64883 159.64652,90.98913 191.57582,109.18693 v -32.6006 H -172.40543 Z"
     fill="#33cc33"
     id="path6" />
  <path
     d="m -172.40543,697.53765 c 37.36603,13.45107 152.15149,55.60966 224.196203,80.70644 72.044717,25.09678 136.325987,39.89248 208.072077,69.87425 71.74608,29.98176 145.32689,78.65436 222.40444,110.01633 77.07755,31.36198 158.97397,52.30513 240.06085,78.15553 81.08687,25.8504 170.58267,49.8765 246.46041,76.9469 75.87775,27.0704 174.00505,71.2295 208.80605,85.4754 V 1067.3928 H -172.40543 Z"
     fill="#66ff66"
     id="path7" />
</svg>
